<mxfile host="app.diagrams.net" agent="Mozilla/5.0 (X11; Linux x86_64) AppleWebKit/537.36 (KHTML, like Gecko) Chrome/124.0.0.0 Safari/537.36" version="26.0.6">
  <diagram name="Page-1" id="IhlYhrqCRCRwa1VtvwR6">
    <mxGraphModel dx="2217" dy="759" grid="1" gridSize="10" guides="1" tooltips="1" connect="1" arrows="1" fold="1" page="1" pageScale="1" pageWidth="850" pageHeight="1100" math="0" shadow="0">
      <root>
        <mxCell id="0" />
        <mxCell id="1" parent="0" />
        <mxCell id="0ZFBDmFTZtEI8_MoHRnY-1" value="" style="rhombus;whiteSpace=wrap;html=1;" vertex="1" parent="1">
          <mxGeometry x="190" y="310" width="80" height="80" as="geometry" />
        </mxCell>
        <mxCell id="0ZFBDmFTZtEI8_MoHRnY-2" value="Has" style="text;html=1;align=center;verticalAlign=middle;whiteSpace=wrap;rounded=0;" vertex="1" parent="1">
          <mxGeometry x="200" y="335" width="60" height="30" as="geometry" />
        </mxCell>
        <mxCell id="0ZFBDmFTZtEI8_MoHRnY-3" value="" style="rounded=0;whiteSpace=wrap;html=1;" vertex="1" parent="1">
          <mxGeometry x="170" y="420" width="120" height="60" as="geometry" />
        </mxCell>
        <mxCell id="0ZFBDmFTZtEI8_MoHRnY-4" value="User" style="text;html=1;align=center;verticalAlign=middle;whiteSpace=wrap;rounded=0;" vertex="1" parent="1">
          <mxGeometry x="200" y="435" width="60" height="30" as="geometry" />
        </mxCell>
        <mxCell id="0ZFBDmFTZtEI8_MoHRnY-5" value="" style="ellipse;whiteSpace=wrap;html=1;" vertex="1" parent="1">
          <mxGeometry x="80" y="100" width="140" height="50" as="geometry" />
        </mxCell>
        <mxCell id="0ZFBDmFTZtEI8_MoHRnY-6" value="username" style="text;html=1;align=center;verticalAlign=middle;whiteSpace=wrap;rounded=0;" vertex="1" parent="1">
          <mxGeometry x="120" y="110" width="60" height="30" as="geometry" />
        </mxCell>
        <mxCell id="0ZFBDmFTZtEI8_MoHRnY-7" value="" style="rounded=0;whiteSpace=wrap;html=1;" vertex="1" parent="1">
          <mxGeometry x="170" y="210" width="120" height="60" as="geometry" />
        </mxCell>
        <mxCell id="0ZFBDmFTZtEI8_MoHRnY-8" value="Signup/Login" style="text;html=1;align=center;verticalAlign=middle;whiteSpace=wrap;rounded=0;" vertex="1" parent="1">
          <mxGeometry x="200" y="225" width="60" height="30" as="geometry" />
        </mxCell>
        <mxCell id="0ZFBDmFTZtEI8_MoHRnY-9" value="" style="ellipse;whiteSpace=wrap;html=1;" vertex="1" parent="1">
          <mxGeometry x="260" y="100" width="140" height="50" as="geometry" />
        </mxCell>
        <mxCell id="0ZFBDmFTZtEI8_MoHRnY-10" value="password" style="text;html=1;align=center;verticalAlign=middle;whiteSpace=wrap;rounded=0;" vertex="1" parent="1">
          <mxGeometry x="300" y="110" width="60" height="30" as="geometry" />
        </mxCell>
        <mxCell id="0ZFBDmFTZtEI8_MoHRnY-11" value="" style="endArrow=classic;html=1;rounded=0;entryX=0.5;entryY=1;entryDx=0;entryDy=0;exitX=0.5;exitY=0;exitDx=0;exitDy=0;" edge="1" parent="1" source="0ZFBDmFTZtEI8_MoHRnY-7" target="0ZFBDmFTZtEI8_MoHRnY-5">
          <mxGeometry width="50" height="50" relative="1" as="geometry">
            <mxPoint x="400" y="420" as="sourcePoint" />
            <mxPoint x="450" y="370" as="targetPoint" />
          </mxGeometry>
        </mxCell>
        <mxCell id="0ZFBDmFTZtEI8_MoHRnY-12" value="" style="endArrow=classic;html=1;rounded=0;entryX=0.5;entryY=1;entryDx=0;entryDy=0;exitX=0.5;exitY=0;exitDx=0;exitDy=0;" edge="1" parent="1" source="0ZFBDmFTZtEI8_MoHRnY-7" target="0ZFBDmFTZtEI8_MoHRnY-9">
          <mxGeometry width="50" height="50" relative="1" as="geometry">
            <mxPoint x="400" y="420" as="sourcePoint" />
            <mxPoint x="450" y="370" as="targetPoint" />
          </mxGeometry>
        </mxCell>
        <mxCell id="0ZFBDmFTZtEI8_MoHRnY-13" value="" style="endArrow=classic;html=1;rounded=0;exitX=0.5;exitY=0;exitDx=0;exitDy=0;entryX=0.5;entryY=1;entryDx=0;entryDy=0;" edge="1" parent="1" source="0ZFBDmFTZtEI8_MoHRnY-3" target="0ZFBDmFTZtEI8_MoHRnY-1">
          <mxGeometry width="50" height="50" relative="1" as="geometry">
            <mxPoint x="400" y="420" as="sourcePoint" />
            <mxPoint x="450" y="370" as="targetPoint" />
          </mxGeometry>
        </mxCell>
        <mxCell id="0ZFBDmFTZtEI8_MoHRnY-14" value="" style="endArrow=classic;html=1;rounded=0;entryX=0.5;entryY=1;entryDx=0;entryDy=0;exitX=0.5;exitY=0;exitDx=0;exitDy=0;" edge="1" parent="1" source="0ZFBDmFTZtEI8_MoHRnY-1" target="0ZFBDmFTZtEI8_MoHRnY-7">
          <mxGeometry width="50" height="50" relative="1" as="geometry">
            <mxPoint x="400" y="420" as="sourcePoint" />
            <mxPoint x="450" y="370" as="targetPoint" />
          </mxGeometry>
        </mxCell>
        <mxCell id="0ZFBDmFTZtEI8_MoHRnY-15" value="" style="rhombus;whiteSpace=wrap;html=1;" vertex="1" parent="1">
          <mxGeometry x="335" y="410" width="80" height="80" as="geometry" />
        </mxCell>
        <mxCell id="0ZFBDmFTZtEI8_MoHRnY-16" value="Has" style="text;html=1;align=center;verticalAlign=middle;whiteSpace=wrap;rounded=0;" vertex="1" parent="1">
          <mxGeometry x="345" y="435" width="60" height="30" as="geometry" />
        </mxCell>
        <mxCell id="0ZFBDmFTZtEI8_MoHRnY-17" value="" style="endArrow=classic;html=1;rounded=0;exitX=1;exitY=0.5;exitDx=0;exitDy=0;entryX=0;entryY=0.5;entryDx=0;entryDy=0;" edge="1" parent="1" source="0ZFBDmFTZtEI8_MoHRnY-3" target="0ZFBDmFTZtEI8_MoHRnY-15">
          <mxGeometry width="50" height="50" relative="1" as="geometry">
            <mxPoint x="400" y="470" as="sourcePoint" />
            <mxPoint x="450" y="420" as="targetPoint" />
          </mxGeometry>
        </mxCell>
        <mxCell id="0ZFBDmFTZtEI8_MoHRnY-18" value="" style="rounded=0;whiteSpace=wrap;html=1;" vertex="1" parent="1">
          <mxGeometry x="461" y="420" width="120" height="60" as="geometry" />
        </mxCell>
        <mxCell id="0ZFBDmFTZtEI8_MoHRnY-19" value="Dashboard" style="text;html=1;align=center;verticalAlign=middle;whiteSpace=wrap;rounded=0;" vertex="1" parent="1">
          <mxGeometry x="491" y="435" width="60" height="30" as="geometry" />
        </mxCell>
        <mxCell id="0ZFBDmFTZtEI8_MoHRnY-20" value="" style="endArrow=classic;html=1;rounded=0;exitX=1;exitY=0.5;exitDx=0;exitDy=0;entryX=0;entryY=0.5;entryDx=0;entryDy=0;" edge="1" parent="1" target="0ZFBDmFTZtEI8_MoHRnY-18">
          <mxGeometry width="50" height="50" relative="1" as="geometry">
            <mxPoint x="414" y="450" as="sourcePoint" />
            <mxPoint x="549" y="300" as="targetPoint" />
          </mxGeometry>
        </mxCell>
        <mxCell id="0ZFBDmFTZtEI8_MoHRnY-21" value="" style="ellipse;whiteSpace=wrap;html=1;" vertex="1" parent="1">
          <mxGeometry x="451" y="335" width="140" height="50" as="geometry" />
        </mxCell>
        <mxCell id="0ZFBDmFTZtEI8_MoHRnY-22" value="map and details" style="text;html=1;align=center;verticalAlign=middle;whiteSpace=wrap;rounded=0;" vertex="1" parent="1">
          <mxGeometry x="491" y="345" width="60" height="30" as="geometry" />
        </mxCell>
        <mxCell id="0ZFBDmFTZtEI8_MoHRnY-23" value="" style="endArrow=classic;html=1;rounded=0;entryX=0.5;entryY=1;entryDx=0;entryDy=0;exitX=0.5;exitY=0;exitDx=0;exitDy=0;" edge="1" parent="1" source="0ZFBDmFTZtEI8_MoHRnY-18" target="0ZFBDmFTZtEI8_MoHRnY-21">
          <mxGeometry width="50" height="50" relative="1" as="geometry">
            <mxPoint x="411" y="470" as="sourcePoint" />
            <mxPoint x="461" y="420" as="targetPoint" />
          </mxGeometry>
        </mxCell>
        <mxCell id="0ZFBDmFTZtEI8_MoHRnY-24" value="" style="rhombus;whiteSpace=wrap;html=1;" vertex="1" parent="1">
          <mxGeometry x="81" y="520" width="80" height="80" as="geometry" />
        </mxCell>
        <mxCell id="0ZFBDmFTZtEI8_MoHRnY-25" value="Has" style="text;html=1;align=center;verticalAlign=middle;whiteSpace=wrap;rounded=0;" vertex="1" parent="1">
          <mxGeometry x="91" y="545" width="60" height="30" as="geometry" />
        </mxCell>
        <mxCell id="0ZFBDmFTZtEI8_MoHRnY-28" value="" style="rhombus;whiteSpace=wrap;html=1;" vertex="1" parent="1">
          <mxGeometry x="281" y="520" width="80" height="80" as="geometry" />
        </mxCell>
        <mxCell id="0ZFBDmFTZtEI8_MoHRnY-29" value="Has" style="text;html=1;align=center;verticalAlign=middle;whiteSpace=wrap;rounded=0;" vertex="1" parent="1">
          <mxGeometry x="291" y="545" width="60" height="30" as="geometry" />
        </mxCell>
        <mxCell id="0ZFBDmFTZtEI8_MoHRnY-30" value="" style="endArrow=none;html=1;rounded=0;" edge="1" parent="1">
          <mxGeometry width="50" height="50" relative="1" as="geometry">
            <mxPoint x="121" y="500" as="sourcePoint" />
            <mxPoint x="321" y="500" as="targetPoint" />
          </mxGeometry>
        </mxCell>
        <mxCell id="0ZFBDmFTZtEI8_MoHRnY-31" value="" style="endArrow=none;html=1;rounded=0;exitX=0.5;exitY=1;exitDx=0;exitDy=0;" edge="1" parent="1" source="0ZFBDmFTZtEI8_MoHRnY-3">
          <mxGeometry width="50" height="50" relative="1" as="geometry">
            <mxPoint x="400" y="470" as="sourcePoint" />
            <mxPoint x="230" y="500" as="targetPoint" />
          </mxGeometry>
        </mxCell>
        <mxCell id="0ZFBDmFTZtEI8_MoHRnY-32" value="" style="endArrow=none;html=1;rounded=0;entryX=0.5;entryY=0;entryDx=0;entryDy=0;" edge="1" parent="1" target="0ZFBDmFTZtEI8_MoHRnY-24">
          <mxGeometry width="50" height="50" relative="1" as="geometry">
            <mxPoint x="121" y="500" as="sourcePoint" />
            <mxPoint x="461" y="420" as="targetPoint" />
          </mxGeometry>
        </mxCell>
        <mxCell id="0ZFBDmFTZtEI8_MoHRnY-33" value="" style="endArrow=none;html=1;rounded=0;entryX=0.5;entryY=0;entryDx=0;entryDy=0;" edge="1" parent="1" target="0ZFBDmFTZtEI8_MoHRnY-28">
          <mxGeometry width="50" height="50" relative="1" as="geometry">
            <mxPoint x="321" y="500" as="sourcePoint" />
            <mxPoint x="461" y="420" as="targetPoint" />
          </mxGeometry>
        </mxCell>
        <mxCell id="0ZFBDmFTZtEI8_MoHRnY-40" value="" style="rounded=0;whiteSpace=wrap;html=1;" vertex="1" parent="1">
          <mxGeometry x="61" y="620" width="120" height="60" as="geometry" />
        </mxCell>
        <mxCell id="0ZFBDmFTZtEI8_MoHRnY-41" value="Predict Pollution" style="text;html=1;align=center;verticalAlign=middle;whiteSpace=wrap;rounded=0;" vertex="1" parent="1">
          <mxGeometry x="91" y="635" width="60" height="30" as="geometry" />
        </mxCell>
        <mxCell id="0ZFBDmFTZtEI8_MoHRnY-42" value="" style="endArrow=classic;html=1;rounded=0;entryX=0.5;entryY=0;entryDx=0;entryDy=0;exitX=0.5;exitY=1;exitDx=0;exitDy=0;" edge="1" parent="1" source="0ZFBDmFTZtEI8_MoHRnY-24" target="0ZFBDmFTZtEI8_MoHRnY-40">
          <mxGeometry width="50" height="50" relative="1" as="geometry">
            <mxPoint x="400" y="630" as="sourcePoint" />
            <mxPoint x="450" y="420" as="targetPoint" />
          </mxGeometry>
        </mxCell>
        <mxCell id="0ZFBDmFTZtEI8_MoHRnY-45" value="" style="rounded=0;whiteSpace=wrap;html=1;" vertex="1" parent="1">
          <mxGeometry x="260" y="620" width="120" height="60" as="geometry" />
        </mxCell>
        <mxCell id="0ZFBDmFTZtEI8_MoHRnY-46" value="Precautions Page" style="text;html=1;align=center;verticalAlign=middle;whiteSpace=wrap;rounded=0;" vertex="1" parent="1">
          <mxGeometry x="290" y="635" width="60" height="30" as="geometry" />
        </mxCell>
        <mxCell id="0ZFBDmFTZtEI8_MoHRnY-47" value="" style="ellipse;whiteSpace=wrap;html=1;" vertex="1" parent="1">
          <mxGeometry x="425" y="625" width="140" height="50" as="geometry" />
        </mxCell>
        <mxCell id="0ZFBDmFTZtEI8_MoHRnY-48" value="precautions and suggestions" style="text;html=1;align=center;verticalAlign=middle;whiteSpace=wrap;rounded=0;" vertex="1" parent="1">
          <mxGeometry x="465" y="635" width="60" height="30" as="geometry" />
        </mxCell>
        <mxCell id="0ZFBDmFTZtEI8_MoHRnY-50" value="" style="endArrow=classic;html=1;rounded=0;exitX=0.5;exitY=1;exitDx=0;exitDy=0;entryX=0.5;entryY=0;entryDx=0;entryDy=0;" edge="1" parent="1" source="0ZFBDmFTZtEI8_MoHRnY-28" target="0ZFBDmFTZtEI8_MoHRnY-45">
          <mxGeometry width="50" height="50" relative="1" as="geometry">
            <mxPoint x="420" y="740" as="sourcePoint" />
            <mxPoint x="470" y="690" as="targetPoint" />
          </mxGeometry>
        </mxCell>
        <mxCell id="0ZFBDmFTZtEI8_MoHRnY-51" value="" style="endArrow=classic;html=1;rounded=0;exitX=1;exitY=0.5;exitDx=0;exitDy=0;entryX=0;entryY=0.5;entryDx=0;entryDy=0;" edge="1" parent="1" source="0ZFBDmFTZtEI8_MoHRnY-45" target="0ZFBDmFTZtEI8_MoHRnY-47">
          <mxGeometry width="50" height="50" relative="1" as="geometry">
            <mxPoint x="420" y="740" as="sourcePoint" />
            <mxPoint x="470" y="690" as="targetPoint" />
          </mxGeometry>
        </mxCell>
        <mxCell id="0ZFBDmFTZtEI8_MoHRnY-52" value="" style="ellipse;whiteSpace=wrap;html=1;" vertex="1" parent="1">
          <mxGeometry x="-120" y="720" width="140" height="50" as="geometry" />
        </mxCell>
        <mxCell id="0ZFBDmFTZtEI8_MoHRnY-53" value="Graphs and predictions" style="text;html=1;align=center;verticalAlign=middle;whiteSpace=wrap;rounded=0;" vertex="1" parent="1">
          <mxGeometry x="-80" y="730" width="60" height="30" as="geometry" />
        </mxCell>
        <mxCell id="0ZFBDmFTZtEI8_MoHRnY-54" value="" style="ellipse;whiteSpace=wrap;html=1;" vertex="1" parent="1">
          <mxGeometry x="51" y="720" width="140" height="50" as="geometry" />
        </mxCell>
        <mxCell id="0ZFBDmFTZtEI8_MoHRnY-55" value="Result" style="text;html=1;align=center;verticalAlign=middle;whiteSpace=wrap;rounded=0;" vertex="1" parent="1">
          <mxGeometry x="91" y="730" width="60" height="30" as="geometry" />
        </mxCell>
        <mxCell id="0ZFBDmFTZtEI8_MoHRnY-56" value="" style="ellipse;whiteSpace=wrap;html=1;" vertex="1" parent="1">
          <mxGeometry x="217" y="720" width="140" height="50" as="geometry" />
        </mxCell>
        <mxCell id="0ZFBDmFTZtEI8_MoHRnY-57" value="Alert" style="text;html=1;align=center;verticalAlign=middle;whiteSpace=wrap;rounded=0;" vertex="1" parent="1">
          <mxGeometry x="257" y="730" width="60" height="30" as="geometry" />
        </mxCell>
        <mxCell id="0ZFBDmFTZtEI8_MoHRnY-58" value="" style="endArrow=classic;html=1;rounded=0;entryX=0.5;entryY=0;entryDx=0;entryDy=0;exitX=0.5;exitY=1;exitDx=0;exitDy=0;" edge="1" parent="1" source="0ZFBDmFTZtEI8_MoHRnY-40" target="0ZFBDmFTZtEI8_MoHRnY-52">
          <mxGeometry width="50" height="50" relative="1" as="geometry">
            <mxPoint x="420" y="710" as="sourcePoint" />
            <mxPoint x="470" y="660" as="targetPoint" />
          </mxGeometry>
        </mxCell>
        <mxCell id="0ZFBDmFTZtEI8_MoHRnY-59" value="" style="endArrow=classic;html=1;rounded=0;entryX=0.5;entryY=0;entryDx=0;entryDy=0;exitX=0.5;exitY=1;exitDx=0;exitDy=0;" edge="1" parent="1" source="0ZFBDmFTZtEI8_MoHRnY-40" target="0ZFBDmFTZtEI8_MoHRnY-54">
          <mxGeometry width="50" height="50" relative="1" as="geometry">
            <mxPoint x="469" y="850" as="sourcePoint" />
            <mxPoint x="170" y="860" as="targetPoint" />
          </mxGeometry>
        </mxCell>
        <mxCell id="0ZFBDmFTZtEI8_MoHRnY-60" value="" style="endArrow=classic;html=1;rounded=0;exitX=0.5;exitY=1;exitDx=0;exitDy=0;entryX=0.5;entryY=0;entryDx=0;entryDy=0;" edge="1" parent="1" source="0ZFBDmFTZtEI8_MoHRnY-40" target="0ZFBDmFTZtEI8_MoHRnY-56">
          <mxGeometry width="50" height="50" relative="1" as="geometry">
            <mxPoint x="420" y="710" as="sourcePoint" />
            <mxPoint x="310" y="920" as="targetPoint" />
          </mxGeometry>
        </mxCell>
      </root>
    </mxGraphModel>
  </diagram>
</mxfile>
